<svg t="1678022534782" class="icon" viewBox="0 0 1280 1024" version="1.1" xmlns="http://www.w3.org/2000/svg" p-id="2407" width="200" height="200"><path d="M36.64 511.56L384 447.92l-182.56 137.38c-20.16 20.16-5.88 54.62 22.62 54.62h445.4c-18.88-52.8-29.46-108.94-29.46-166.76v-84.54l-239.46-175.2c-47.64-31.76-110.58-28.02-154.12 9.18L11.62 455.28c-24.76 20.66-6.9 60.84 25.02 56.28z m1113.74 68.2l-201.32-100.62A95.984 95.984 0 0 1 896 393.3v-73.38h128l56.18 45.26c12 12 28.28 18.74 45.26 18.74h61.94a64 64 0 0 0 57.24-35.38l28.62-57.24a64.01 64.01 0 0 0-6.04-67.02l-149.06-198.76C1106.04 9.4 1087.08 0 1066.94 0H592.04c-14.26 0-21.4 17.14-11.32 27.22L704 127.92 584.84 177.6c-11.8 5.9-11.8 22.72 0 28.62L704 255.92v217.24c0 144.16 72.06 278.78 192 358.76-391.18 13.62-689.12 82.02-868.2 121.82C11.56 957.34 0 971.76 0 988.4 0 1008 15.9 1024 35.52 1024h998.16c126.58 0.02 239.22-95.12 245.98-221.52 5.04-94.56-45.46-180.8-129.28-222.72zM978.36 132.5l91.3 22.82c-5.5 21.82-24.94 37.78-48.26 36.52-25.92-1.42-51.7-25.06-43.04-59.34z" p-id="2408" fill="#d81e06"></path></svg>